<?xml version="1.0"?>
<svg xmlns="http://www.w3.org/2000/svg" id="Layer_2" data-name="Layer 2" viewBox="0 0 128 128" width="512" height="512"><title>SHOES</title><path d="M119.887,65.862,96.252,58.17l-8.034-5.1.148-.148h0a4.937,4.937,0,0,0-6.983-6.982l-1.7,1.7L76.17,45.41l.7-.7h0a4.937,4.937,0,0,0-6.983-6.982l-2.256,2.256-2.693-1.711A1.751,1.751,0,0,0,64,38H59.408a9.27,9.27,0,0,0-8.932,6.834,5.766,5.766,0,0,1-5.554,4.25H30.744a5.766,5.766,0,0,1-5.554-4.25A9.27,9.27,0,0,0,16.259,38h-4.5a1.75,1.75,0,0,0-1.221.5A35.054,35.054,0,0,0,0,63.468V95a6.757,6.757,0,0,0,6.75,6.75h114.5A6.758,6.758,0,0,0,128,95V77.036A11.722,11.722,0,0,0,119.887,65.862ZM84.875,47.989a1.437,1.437,0,0,1,1.016,2.455l-1.69,1.69h0l-3.179,3.179a1.438,1.438,0,0,1-2.033-2.033l4.872-4.871A1.426,1.426,0,0,1,84.875,47.989ZM72.363,40.2a1.438,1.438,0,0,1,2.032,0,1.441,1.441,0,0,1,0,2.034l-4.87,4.87a1.437,1.437,0,0,1-2.033-2.032ZM59.408,41.5h4.083l1.6,1.019-.079.079a4.937,4.937,0,0,0,0,6.983,5,5,0,0,0,6.982,0l1.636-1.636,3.508,2.229-.63.63a4.938,4.938,0,0,0,0,6.983,5,5,0,0,0,6.982,0L85.682,55.6l7.308,4.643a11.673,11.673,0,0,1-15.2,2.378L53.336,47.179a9.216,9.216,0,0,0,.518-1.43A5.764,5.764,0,0,1,59.408,41.5Zm-8.116,8.528L75.924,65.582a15.086,15.086,0,0,0,8.082,2.354,15.337,15.337,0,0,0,3.476-.4,15.068,15.068,0,0,0,8.721-5.7l22.6,7.355a8.23,8.23,0,0,1,5.7,7.845V86.5H52.968L63.062,72a1.75,1.75,0,0,0-1.436-2.75h-25.5A1.75,1.75,0,0,0,34.69,70l-4.439,6.376H3.5V65.218H20.167a1.748,1.748,0,0,0,1.142-.424l14.174-12.21h9.44A9.249,9.249,0,0,0,51.292,50.028ZM3.5,79.875H27.815L23.2,86.5H3.5Zm33.541-7.126h4.235L31.7,86.5H27.468Zm8.5,0h4.235L40.2,86.5H35.968Zm8.5,0h4.235L48.7,86.5H44.468ZM16.259,41.5a5.764,5.764,0,0,1,5.553,4.249,9.368,9.368,0,0,0,8.331,6.815L19.517,61.718H3.555A31.691,31.691,0,0,1,12.481,41.5ZM124.5,95a3.254,3.254,0,0,1-3.25,3.25H6.75A3.254,3.254,0,0,1,3.5,95V90h121Z"/></svg>
