<!DOCTYPE svg PUBLIC "-//W3C//DTD SVG 20010904//EN" "http://www.w3.org/TR/2001/REC-SVG-20010904/DTD/svg10.dtd">
<svg version="1.0" xmlns="http://www.w3.org/2000/svg" width="1600px" height="1093px" viewBox="0 0 16000 10930" preserveAspectRatio="xMidYMid meet">
<g id="layer101" fill="#ffffff" stroke="none">
 <path d="M4855 7539 c-71 -5 -229 -13 -350 -18 -121 -5 -305 -19 -410 -30 -104 -10 -221 -22 -260 -24 -234 -18 -906 -122 -1107 -173 -230 -57 -307 -77 -373 -99 -38 -12 -81 -25 -95 -28 -41 -10 -152 -64 -183 -90 -23 -20 -28 -33 -34 -91 l-6 -68 39 17 c21 10 53 22 69 28 17 5 57 20 90 32 74 28 227 75 239 75 6 0 46 11 90 24 136 40 526 126 573 126 15 0 75 9 133 21 58 11 152 24 210 29 58 5 164 16 235 24 234 28 1041 56 1620 56 533 0 1917 -32 2390 -55 171 -8 387 -18 480 -20 94 -3 260 -10 370 -15 592 -28 795 -32 1295 -26 1259 15 1962 25 2060 30 58 3 186 8 285 11 203 5 635 32 642 39 12 11 -12 71 -39 100 l-30 31 -282 -3 c-154 -2 -607 -7 -1006 -12 -1329 -18 -2461 -11 -3550 20 -195 6 -510 15 -700 20 -190 6 -435 17 -545 25 -110 9 -303 20 -430 25 -126 5 -305 14 -397 20 -194 12 -833 11 -1023 -1z"/>
 <path d="M4155 6685 c-5 -2 -98 -9 -205 -14 -200 -10 -437 -29 -477 -37 -28 -5 -29 -26 -8 -179 26 -185 37 -238 61 -299 13 -33 24 -66 24 -73 0 -8 11 -39 25 -69 14 -30 25 -60 25 -66 0 -17 60 -138 91 -183 15 -22 42 -56 60 -75 19 -20 32 -44 31 -55 -5 -35 73 -205 93 -205 12 0 127 -99 199 -172 27 -27 64 -60 82 -74 20 -16 34 -37 38 -58 4 -18 14 -40 24 -48 20 -17 127 -68 143 -68 6 0 25 -11 43 -25 35 -27 80 -32 119 -14 27 12 43 8 237 -61 63 -23 129 -45 145 -49 49 -13 188 -62 218 -77 15 -8 27 -20 27 -28 0 -19 76 -96 95 -96 9 0 38 -11 65 -25 27 -14 55 -25 62 -25 7 0 54 -21 103 -46 50 -26 110 -53 135 -60 25 -7 65 -19 90 -28 121 -40 177 -56 197 -56 33 0 53 -10 53 -29 1 -37 140 -158 233 -201 60 -29 78 -32 194 -37 100 -4 138 -2 171 10 40 14 44 14 49 -1 18 -57 32 -78 97 -139 109 -102 117 -108 194 -150 22 -12 46 -28 54 -36 50 -51 205 -107 294 -107 34 0 76 -5 93 -11 25 -9 43 -9 73 0 23 7 44 9 51 3 7 -4 31 -14 55 -22 23 -7 42 -17 42 -21 0 -4 10 -11 23 -15 12 -3 29 -12 37 -19 14 -12 47 -32 145 -86 22 -12 42 -25 45 -29 3 -4 21 -15 40 -23 19 -9 49 -24 65 -33 17 -9 37 -20 45 -24 8 -4 42 -22 75 -40 33 -18 69 -38 80 -43 11 -6 27 -14 35 -18 26 -15 119 -63 384 -198 143 -72 265 -135 270 -140 19 -15 132 -51 159 -51 52 0 147 83 147 128 0 6 20 39 45 74 24 35 53 81 65 103 37 73 99 165 110 165 9 0 80 96 80 108 0 4 8 15 18 23 84 78 182 200 182 229 0 6 9 30 20 52 25 53 44 158 36 206 -3 20 -2 42 2 48 11 17 193 101 279 129 198 65 557 67 978 5 222 -32 422 -69 520 -96 50 -13 96 -24 102 -24 26 0 200 -64 238 -88 64 -40 116 -85 130 -112 12 -25 35 -122 53 -230 12 -68 58 -199 77 -220 8 -9 15 -21 15 -26 0 -8 40 -51 91 -97 21 -20 122 -67 142 -67 29 0 62 21 85 54 27 39 27 46 4 46 -10 0 -35 9 -57 20 -22 11 -42 20 -46 20 -11 0 -66 57 -74 77 -16 42 -45 160 -45 189 0 17 -11 76 -25 132 -14 56 -25 119 -25 142 0 63 -52 153 -138 238 -41 39 -79 72 -85 72 -6 0 -18 6 -26 14 -25 22 -217 121 -301 154 -211 83 -506 145 -707 146 -76 1 -117 12 -83 24 19 6 140 124 140 136 0 10 28 43 105 120 80 81 94 91 167 123 96 41 215 44 344 8 55 -15 127 -38 162 -51 34 -13 67 -24 73 -24 5 0 29 -9 52 -19 44 -20 119 -48 222 -83 33 -11 67 -24 76 -29 9 -5 59 -15 110 -24 129 -20 202 -8 328 55 271 137 349 166 417 156 l40 -5 17 122 c34 245 16 668 -39 912 -29 130 -53 216 -64 230 -5 6 -44 7 -107 3 -54 -4 -215 -15 -358 -23 -143 -9 -316 -20 -385 -25 -394 -29 -1510 -20 -1850 15 -80 8 -212 19 -295 25 -362 23 -462 30 -497 34 -35 4 -38 2 -38 -22 0 -46 -11 -69 -37 -81 -21 -10 -25 -17 -21 -46 3 -28 1 -35 -13 -35 -38 0 -49 -12 -49 -50 0 -33 -4 -39 -30 -49 -26 -8 -30 -15 -30 -45 0 -30 -4 -37 -25 -42 -21 -5 -25 -12 -25 -41 0 -29 -4 -36 -30 -44 -25 -9 -30 -16 -30 -44 0 -29 -4 -34 -30 -40 -28 -6 -30 -10 -30 -51 0 -40 -2 -44 -24 -44 -30 0 -38 -11 -39 -56 -1 -30 -5 -36 -31 -43 -27 -7 -31 -11 -28 -40 3 -27 -1 -33 -27 -42 -25 -9 -30 -17 -33 -47 -2 -29 -8 -37 -28 -42 -21 -5 -25 -12 -28 -47 -3 -38 -6 -41 -37 -47 -31 -6 -34 -10 -37 -49 -3 -39 -5 -42 -35 -45 -31 -3 -33 -6 -33 -42 0 -34 -4 -41 -24 -46 -20 -5 -26 -13 -28 -42 -3 -34 -6 -37 -36 -40 -33 -3 -34 -5 -30 -42 3 -37 2 -38 -32 -44 -33 -5 -37 -9 -46 -48 -7 -33 -14 -44 -31 -46 -19 -3 -23 -10 -23 -37 0 -31 -3 -35 -35 -41 -32 -6 -35 -9 -35 -39 0 -28 -5 -35 -31 -44 -27 -9 -30 -14 -24 -40 6 -26 3 -30 -29 -41 -29 -9 -35 -17 -38 -43 -2 -26 -8 -33 -30 -35 -22 -3 -27 -9 -30 -35 -2 -24 -9 -33 -28 -37 -19 -4 -26 -13 -28 -38 -3 -28 -7 -32 -32 -32 -24 0 -29 -5 -34 -35 -5 -26 -13 -36 -31 -41 -19 -5 -25 -13 -25 -35 0 -16 -2 -29 -5 -29 -14 0 -65 32 -65 40 0 6 -7 10 -15 10 -8 0 -39 11 -69 25 -30 14 -59 25 -64 25 -6 0 -52 22 -103 49 -52 26 -111 51 -131 55 -44 8 -49 21 -13 30 16 4 25 13 25 26 0 13 10 24 25 30 18 7 25 17 25 35 0 20 5 25 24 25 20 0 25 6 28 32 2 25 9 34 28 38 19 5 26 14 30 40 4 29 10 36 33 38 23 3 27 8 27 36 0 29 4 34 30 40 24 4 30 11 30 32 0 20 7 28 30 37 25 9 30 17 28 36 -2 21 3 27 30 35 28 8 32 13 32 42 0 29 4 34 33 42 30 8 32 12 35 54 3 42 6 46 33 52 26 5 29 10 29 41 0 31 3 36 30 42 25 4 30 10 30 33 0 22 6 29 33 36 29 9 32 14 35 51 3 36 6 41 33 47 26 5 29 9 29 45 0 33 3 40 23 43 17 2 23 11 25 36 3 26 10 36 38 49 27 13 34 23 34 45 0 23 6 29 33 36 28 7 32 13 35 44 3 32 7 38 34 43 29 7 30 9 25 45 -5 38 -4 39 27 42 29 3 31 5 28 40 -3 34 -1 37 33 48 35 12 37 14 33 51 -3 35 -1 39 24 44 25 6 28 11 28 51 0 42 1 44 31 44 31 0 32 3 12 56 -2 6 14 16 35 23 35 12 40 17 38 44 -1 25 6 35 31 51 62 40 49 47 -133 66 -60 7 -192 23 -293 36 -242 32 -237 32 -245 -9 -4 -20 -14 -36 -29 -42 -16 -7 -23 -20 -25 -47 -3 -35 -6 -38 -33 -38 -27 0 -30 -3 -28 -27 4 -51 0 -60 -31 -66 -27 -6 -30 -10 -30 -43 0 -31 -4 -37 -30 -47 -26 -10 -30 -16 -30 -49 0 -36 -2 -38 -30 -38 -29 0 -30 -2 -30 -44 0 -42 -1 -44 -34 -50 -33 -6 -34 -8 -29 -41 5 -31 3 -35 -23 -41 -36 -9 -44 -20 -44 -61 0 -27 -4 -32 -27 -35 -24 -3 -28 -8 -31 -40 -3 -29 -9 -38 -33 -48 -24 -10 -29 -18 -29 -46 0 -28 -4 -33 -27 -36 -26 -3 -28 -7 -28 -45 0 -39 -2 -42 -31 -48 -27 -5 -32 -11 -38 -44 -5 -32 -11 -41 -36 -49 -24 -9 -30 -17 -30 -41 0 -24 -5 -32 -25 -37 -20 -5 -25 -12 -25 -39 0 -28 -4 -33 -30 -38 -27 -6 -30 -11 -30 -42 0 -31 -3 -36 -30 -41 -25 -5 -30 -11 -30 -35 0 -23 -6 -30 -35 -40 -30 -11 -35 -17 -35 -46 0 -18 -4 -34 -10 -34 -5 -1 -16 -2 -22 -3 -7 -1 -13 -13 -13 -28 1 -21 -5 -27 -27 -32 -23 -5 -28 -11 -28 -36 0 -23 -5 -31 -25 -36 -19 -5 -25 -13 -25 -35 0 -24 -4 -29 -25 -29 -21 0 -25 -5 -25 -30 0 -38 -25 -40 -96 -7 -27 13 -83 36 -124 52 -41 15 -97 38 -123 51 -27 13 -53 24 -57 24 -16 0 -110 45 -110 53 0 4 9 7 20 7 13 0 20 7 20 20 0 15 9 22 31 27 27 5 30 9 25 33 -4 25 -2 28 26 34 26 5 29 9 24 31 -6 22 -2 27 24 36 24 9 30 17 30 39 0 23 5 29 30 34 24 4 30 11 30 31 0 18 7 26 26 31 23 6 25 11 22 40 -3 27 0 34 13 34 36 0 49 12 49 46 0 30 4 35 30 41 26 5 30 10 30 38 0 28 4 33 29 38 26 5 30 11 33 44 2 31 7 39 26 41 18 3 22 10 22 42 0 35 2 38 34 44 32 6 35 10 38 44 3 32 7 37 31 40 24 3 27 7 27 42 0 33 4 39 29 48 26 9 30 16 33 54 3 39 6 43 31 46 24 3 27 7 27 42 0 35 3 39 30 45 17 4 30 7 30 8 0 1 -4 16 -9 33 -9 30 -7 33 29 49 34 15 38 21 34 44 -5 22 -1 28 25 37 25 10 30 18 33 50 3 34 6 39 33 44 25 4 30 10 33 38 3 27 9 36 33 44 22 8 29 16 29 36 0 19 11 36 35 55 38 31 44 46 18 45 -32 -2 -559 53 -665 69 -37 5 -38 5 -38 -25 0 -26 -5 -32 -35 -42 -31 -10 -35 -16 -35 -44 0 -29 -4 -34 -32 -43 -30 -8 -33 -12 -30 -46 3 -33 1 -37 -32 -51 -32 -13 -36 -19 -36 -50 0 -32 -3 -36 -34 -42 -32 -6 -35 -9 -38 -47 -3 -34 -7 -42 -28 -47 -21 -5 -25 -12 -23 -38 3 -28 -1 -32 -30 -40 -27 -7 -32 -13 -32 -38 0 -23 -6 -31 -30 -40 -25 -9 -31 -17 -35 -50 -4 -31 -10 -40 -27 -42 -19 -3 -23 -10 -23 -38 0 -31 -2 -34 -30 -34 -28 0 -30 -2 -30 -40 0 -37 -2 -39 -34 -46 -31 -5 -35 -10 -38 -43 -2 -29 -7 -37 -26 -39 -21 -3 -23 -7 -18 -37 6 -31 5 -33 -28 -39 -30 -6 -35 -11 -38 -39 -3 -27 -8 -33 -31 -35 -27 -3 -29 -6 -23 -38 7 -33 6 -34 -25 -34 -29 0 -31 -2 -27 -31 4 -27 1 -32 -23 -41 -24 -8 -28 -15 -26 -41 2 -28 -1 -32 -25 -35 -24 -3 -28 -8 -28 -33 0 -25 -4 -29 -26 -29 -22 0 -25 -4 -21 -21 12 -45 -74 -40 -189 10 -25 12 -51 21 -57 21 -5 0 -35 11 -66 24 -31 13 -83 32 -115 42 -32 11 -66 24 -75 31 -14 11 -12 12 13 13 25 0 28 3 24 25 -4 20 0 26 24 34 19 7 28 16 26 28 -2 11 7 22 25 31 18 9 27 21 27 38 0 16 8 28 25 36 18 8 25 19 25 40 0 24 4 28 26 28 25 0 26 3 21 34 -5 31 -3 34 26 43 26 7 32 14 32 38 1 22 7 31 28 38 22 7 27 15 27 42 0 27 5 34 25 39 17 4 25 13 25 29 0 14 11 28 30 39 24 14 30 24 30 51 0 30 4 35 31 41 27 5 30 9 27 38 -3 29 0 33 30 42 29 8 33 13 30 37 -4 24 -1 28 28 34 30 5 33 9 36 48 3 38 6 42 31 45 22 3 27 8 27 32 0 22 6 30 30 39 25 8 30 15 30 44 0 30 4 35 39 47 35 11 38 15 37 48 -1 32 2 36 33 44 31 9 33 11 26 44 -6 32 -4 35 24 45 23 8 31 17 31 35 0 18 -7 24 -32 29 -84 13 -285 36 -398 45 -69 5 -192 17 -275 25 -146 16 -535 29 -1170 40 -170 3 -314 3 -320 0z"/>
 </g>

</svg>